<svg width="24" height="24" viewBox="0 0 24 24" fill="none" xmlns="http://www.w3.org/2000/svg">
<g clip-path="url(#clip0_601_2942)">
<path d="M17.8 19.817L15.628 20.955C15.5635 20.9885 15.491 21.0035 15.4186 20.9982C15.3461 20.9929 15.2765 20.9676 15.2176 20.9251C15.1587 20.8826 15.1127 20.8245 15.0849 20.7574C15.0571 20.6903 15.0485 20.6167 15.06 20.545L15.475 18.134L13.718 16.427C13.6656 16.3763 13.6284 16.3119 13.6108 16.2411C13.5933 16.1703 13.5959 16.096 13.6186 16.0266C13.6412 15.9573 13.6829 15.8957 13.7388 15.8489C13.7948 15.8021 13.8627 15.772 13.935 15.762L16.363 15.41L17.449 13.217C17.4815 13.1517 17.5315 13.0967 17.5935 13.0583C17.6556 13.0199 17.727 12.9995 17.8 12.9995C17.8729 12.9995 17.9444 13.0199 18.0064 13.0583C18.0685 13.0967 18.1185 13.1517 18.151 13.217L19.237 15.41L21.665 15.762C21.737 15.7723 21.8047 15.8027 21.8604 15.8495C21.9162 15.8963 21.9576 15.9578 21.9802 16.027C22.0028 16.0962 22.0056 16.1703 21.9882 16.241C21.9708 16.3117 21.9341 16.3761 21.882 16.427L20.125 18.134L20.539 20.544C20.5514 20.6158 20.5434 20.6898 20.516 20.7573C20.4885 20.8249 20.4426 20.8834 20.3836 20.9262C20.3245 20.969 20.2547 20.9944 20.1819 20.9995C20.1092 21.0046 20.0364 20.9891 19.972 20.955L17.8 19.817Z" stroke="#343434" stroke-width="1.5" stroke-linecap="round" stroke-linejoin="round"/>
<path d="M6.19999 19.817L4.02799 20.955C3.96353 20.9885 3.89102 21.0035 3.81855 20.9982C3.74608 20.9929 3.6765 20.9676 3.61758 20.9251C3.55866 20.8826 3.51272 20.8245 3.48489 20.7574C3.45707 20.6903 3.44844 20.6167 3.45999 20.545L3.87499 18.134L2.11799 16.427C2.06554 16.3763 2.02841 16.3119 2.01083 16.2411C1.99325 16.1703 1.99592 16.096 2.01855 16.0266C2.04118 15.9573 2.08285 15.8957 2.1388 15.8489C2.19475 15.8021 2.26274 15.772 2.33499 15.762L4.76299 15.41L5.84899 13.217C5.88147 13.1517 5.93153 13.0967 5.99353 13.0583C6.05554 13.0199 6.12704 12.9995 6.19999 12.9995C6.27293 12.9995 6.34443 13.0199 6.40644 13.0583C6.46845 13.0967 6.51851 13.1517 6.55099 13.217L7.63699 15.41L10.065 15.762C10.137 15.7723 10.2047 15.8027 10.2604 15.8495C10.3161 15.8963 10.3576 15.9578 10.3802 16.027C10.4028 16.0962 10.4056 16.1703 10.3882 16.241C10.3708 16.3117 10.334 16.3761 10.282 16.427L8.52499 18.134L8.93899 20.544C8.95141 20.6158 8.94344 20.6898 8.91597 20.7573C8.8885 20.8249 8.84263 20.8834 8.78358 20.9262C8.72453 20.969 8.65466 20.9944 8.5819 20.9995C8.50915 21.0046 8.43642 20.9891 8.37199 20.955L6.19999 19.817Z" stroke="#343434" stroke-width="1.5" stroke-linecap="round" stroke-linejoin="round"/>
<path d="M12 9.81698L9.82801 10.955C9.76355 10.9885 9.69104 11.0035 9.61857 10.9982C9.54609 10.9929 9.47651 10.9676 9.4176 10.9251C9.35868 10.8826 9.31274 10.8245 9.28491 10.7574C9.25709 10.6903 9.24846 10.6167 9.26001 10.545L9.67501 8.13398L7.91801 6.42698C7.86556 6.37628 7.82843 6.31186 7.81085 6.24107C7.79327 6.17027 7.79594 6.09597 7.81857 6.02662C7.8412 5.95728 7.88287 5.89569 7.93882 5.8489C7.99477 5.8021 8.06275 5.77198 8.13501 5.76198L10.563 5.40998L11.649 3.21698C11.6815 3.15166 11.7315 3.0967 11.7936 3.05828C11.8556 3.01987 11.9271 2.99951 12 2.99951C12.073 2.99951 12.1445 3.01987 12.2065 3.05828C12.2685 3.0967 12.3185 3.15166 12.351 3.21698L13.437 5.40998L15.865 5.76198C15.937 5.77234 16.0047 5.80265 16.0605 5.84949C16.1162 5.89633 16.1577 5.95783 16.1802 6.02702C16.2028 6.09621 16.2056 6.17034 16.1882 6.24102C16.1709 6.3117 16.1341 6.37612 16.082 6.42698L14.325 8.13398L14.739 10.544C14.7514 10.6158 14.7435 10.6898 14.716 10.7573C14.6885 10.8249 14.6426 10.8834 14.5836 10.9262C14.5245 10.969 14.4547 10.9944 14.3819 10.9995C14.3092 11.0046 14.2364 10.9891 14.172 10.955L12 9.81698Z" stroke="#343434" stroke-width="1.5" stroke-linecap="round" stroke-linejoin="round"/>
</g>
<defs>
<clipPath id="clip0_601_2942">
<rect width="24" height="24" fill="white"/>
</clipPath>
</defs>
</svg>
